<svg width="14" height="11" viewBox="0 0 14 11" fill="none" xmlns="http://www.w3.org/2000/svg">
<path opacity="0.5" d="M13.6562 1.5V9.5C13.6562 9.875 13.5208 10.1979 13.25 10.4688C13 10.7188 12.6979 10.8438 12.3438 10.8438H1.65625C1.30208 10.8438 0.989583 10.7188 0.71875 10.4688C0.46875 10.1979 0.34375 9.875 0.34375 9.5V1.5C0.34375 1.125 0.46875 0.8125 0.71875 0.5625C0.989583 0.291667 1.30208 0.15625 1.65625 0.15625H12.3438C12.6979 0.15625 13 0.291667 13.25 0.5625C13.5208 0.8125 13.6562 1.125 13.6562 1.5ZM12.3438 1.5H1.65625L7 4.84375L12.3438 1.5ZM12.3438 9.5V2.84375L7 6.15625L1.65625 2.84375V9.5H12.3438Z" fill="#03103F"/>
</svg>
