<svg width="14" height="14" viewBox="0 0 14 14" fill="none" xmlns="http://www.w3.org/2000/svg">
<path opacity="0.5" d="M7 0.84375C7.875 0.84375 8.71875 1.01042 9.53125 1.34375C10.3646 1.67708 11.0938 2.15625 11.7188 2.78125C12.3438 3.40625 12.8229 4.13542 13.1562 4.96875C13.4896 5.78125 13.6562 6.625 13.6562 7.5C13.6562 8.95833 13.2292 10.2708 12.375 11.4375C11.5417 12.5833 10.4583 13.3854 9.125 13.8438C8.95833 13.8646 8.83333 13.8333 8.75 13.75C8.6875 13.6875 8.65625 13.6042 8.65625 13.5V11.6875C8.65625 11.125 8.51042 10.7083 8.21875 10.4375C9.11458 10.3333 9.80208 10.0833 10.2812 9.6875C10.9271 9.16667 11.25 8.32292 11.25 7.15625C11.25 6.46875 11.0208 5.875 10.5625 5.375C10.6458 5.1875 10.6875 4.97917 10.6875 4.75C10.7292 4.375 10.6667 3.98958 10.5 3.59375C10.4167 3.57292 10.2708 3.58333 10.0625 3.625C9.66667 3.70833 9.19792 3.92708 8.65625 4.28125C8.13542 4.13542 7.58333 4.0625 7 4.0625C6.41667 4.0625 5.86458 4.13542 5.34375 4.28125C4.96875 4.03125 4.61458 3.84375 4.28125 3.71875C4.05208 3.63542 3.85417 3.59375 3.6875 3.59375H3.5C3.33333 3.98958 3.27083 4.375 3.3125 4.75C3.3125 4.97917 3.35417 5.1875 3.4375 5.375C2.97917 5.875 2.75 6.46875 2.75 7.15625C2.75 8.30208 3.07292 9.14583 3.71875 9.6875C4.17708 10.0833 4.86458 10.3333 5.78125 10.4375C5.55208 10.6458 5.41667 10.9479 5.375 11.3438C5.04167 11.4688 4.73958 11.5208 4.46875 11.5C4.03125 11.4583 3.67708 11.2188 3.40625 10.7812C3.36458 10.6771 3.28125 10.5729 3.15625 10.4688C2.92708 10.2396 2.67708 10.1146 2.40625 10.0938L2.25 10.125C2.14583 10.125 2.09375 10.1562 2.09375 10.2188C2.09375 10.2812 2.17708 10.375 2.34375 10.5L2.46875 10.5938C2.57292 10.6562 2.66667 10.75 2.75 10.875C2.89583 11.0417 3.01042 11.2396 3.09375 11.4688C3.15625 11.6979 3.30208 11.8958 3.53125 12.0625C3.96875 12.4375 4.57292 12.5417 5.34375 12.375V13.5C5.34375 13.6042 5.30208 13.6875 5.21875 13.75C5.15625 13.8333 5.05208 13.8646 4.90625 13.8438C3.55208 13.3854 2.44792 12.5833 1.59375 11.4375C0.760417 10.2708 0.34375 8.95833 0.34375 7.5C0.34375 6.625 0.510417 5.78125 0.84375 4.96875C1.17708 4.13542 1.65625 3.40625 2.28125 2.78125C2.90625 2.15625 3.625 1.67708 4.4375 1.34375C5.27083 1.01042 6.125 0.84375 7 0.84375Z" fill="#03103F"/>
</svg>
