<svg width="12" height="13" viewBox="0 0 12 13" fill="none" xmlns="http://www.w3.org/2000/svg">
<path opacity="0.5" d="M10.6562 0.5C11.0312 0.5 11.3438 0.635417 11.5938 0.90625C11.8646 1.15625 12 1.46875 12 1.84375V11.1562C12 11.5312 11.8646 11.8542 11.5938 12.125C11.3438 12.375 11.0312 12.5 10.6562 12.5H1.34375C0.96875 12.5 0.645833 12.375 0.375 12.125C0.125 11.8542 0 11.5312 0 11.1562V1.84375C0 1.46875 0.125 1.15625 0.375 0.90625C0.645833 0.635417 0.96875 0.5 1.34375 0.5H10.6562ZM10.3438 10.8438V7.3125C10.3438 6.70833 10.125 6.19792 9.6875 5.78125C9.27083 5.34375 8.76042 5.125 8.15625 5.125C7.86458 5.125 7.57292 5.20833 7.28125 5.375C6.98958 5.54167 6.77083 5.75 6.625 6V5.25H4.75V10.8438H6.625V7.53125C6.625 7.28125 6.70833 7.07292 6.875 6.90625C7.0625 6.71875 7.28125 6.625 7.53125 6.625C7.80208 6.625 8.02083 6.71875 8.1875 6.90625C8.375 7.07292 8.46875 7.28125 8.46875 7.53125V10.8438H10.3438ZM2.59375 4.21875C2.90625 4.21875 3.16667 4.11458 3.375 3.90625C3.60417 3.67708 3.71875 3.40625 3.71875 3.09375C3.71875 2.78125 3.60417 2.52083 3.375 2.3125C3.16667 2.08333 2.90625 1.96875 2.59375 1.96875C2.28125 1.96875 2.01042 2.08333 1.78125 2.3125C1.57292 2.52083 1.46875 2.78125 1.46875 3.09375C1.46875 3.40625 1.57292 3.67708 1.78125 3.90625C2.01042 4.11458 2.28125 4.21875 2.59375 4.21875ZM3.5 10.8438V5.25H1.65625V10.8438H3.5Z" fill="#03103F"/>
</svg>
