<svg width="12" height="13" viewBox="0 0 12 13" fill="none" xmlns="http://www.w3.org/2000/svg">
<path opacity="0.5" d="M2.40625 5.6875C2.88542 6.625 3.5 7.47917 4.25 8.25C5.02083 9 5.875 9.61458 6.8125 10.0938L8.28125 8.625C8.46875 8.4375 8.69792 8.38542 8.96875 8.46875C9.71875 8.71875 10.5104 8.84375 11.3438 8.84375C11.5312 8.84375 11.6875 8.90625 11.8125 9.03125C11.9375 9.15625 12 9.3125 12 9.5V11.8438C12 12.0312 11.9375 12.1875 11.8125 12.3125C11.6875 12.4375 11.5312 12.5 11.3438 12.5C9.84375 12.5 8.39583 12.2188 7 11.6562C5.60417 11.0729 4.375 10.25 3.3125 9.1875C2.25 8.125 1.42708 6.89583 0.84375 5.5C0.28125 4.10417 0 2.65625 0 1.15625C0 0.96875 0.0625 0.8125 0.1875 0.6875C0.3125 0.5625 0.46875 0.5 0.65625 0.5H3C3.1875 0.5 3.34375 0.5625 3.46875 0.6875C3.59375 0.8125 3.65625 0.96875 3.65625 1.15625C3.65625 1.98958 3.78125 2.78125 4.03125 3.53125C4.11458 3.80208 4.0625 4.03125 3.875 4.21875L2.40625 5.6875Z" fill="#03103F"/>
</svg>
