<svg width="143" height="12" viewBox="0 0 143 12" fill="none" xmlns="http://www.w3.org/2000/svg">
<path d="M8.806 4.49C8.806 5.11533 8.66133 5.68467 8.372 6.198C8.08267 6.702 7.65333 7.10333 7.084 7.402C6.524 7.70067 5.84267 7.85 5.04 7.85H3.808V11H0.7V1.088H5.04C6.25333 1.088 7.182 1.396 7.826 2.012C8.47933 2.628 8.806 3.454 8.806 4.49ZM4.69 5.4C5.334 5.4 5.656 5.09667 5.656 4.49C5.656 3.88333 5.334 3.58 4.69 3.58H3.808V5.4H4.69ZM14.3558 11L12.4938 7.444H12.4798V11H9.3718V1.088H13.9918C14.7945 1.088 15.4805 1.23267 16.0498 1.522C16.6191 1.802 17.0438 2.18933 17.3238 2.684C17.6131 3.16933 17.7578 3.72 17.7578 4.336C17.7578 4.99867 17.5711 5.58667 17.1978 6.1C16.8338 6.61333 16.3065 6.982 15.6158 7.206L17.7718 11H14.3558ZM12.4798 5.372H13.7118C14.0105 5.372 14.2345 5.30667 14.3838 5.176C14.5331 5.036 14.6078 4.82133 14.6078 4.532C14.6078 4.27067 14.5285 4.06533 14.3698 3.916C14.2205 3.76667 14.0011 3.692 13.7118 3.692H12.4798V5.372ZM23.1607 11.098C22.2274 11.098 21.3687 10.8787 20.5847 10.44C19.81 10.0013 19.194 9.39467 18.7367 8.62C18.2794 7.84533 18.0507 6.97267 18.0507 6.002C18.0507 5.03133 18.2794 4.15867 18.7367 3.384C19.194 2.60933 19.81 2.00733 20.5847 1.578C21.3687 1.13933 22.2274 0.92 23.1607 0.92C24.094 0.92 24.948 1.13933 25.7227 1.578C26.4974 2.00733 27.1087 2.60933 27.5567 3.384C28.014 4.15867 28.2427 5.03133 28.2427 6.002C28.2427 6.97267 28.014 7.84533 27.5567 8.62C27.1087 9.39467 26.4927 10.0013 25.7087 10.44C24.934 10.8787 24.0847 11.098 23.1607 11.098ZM23.1607 8.2C23.7767 8.2 24.2527 8.004 24.5887 7.612C24.9247 7.21067 25.0927 6.674 25.0927 6.002C25.0927 5.32067 24.9247 4.784 24.5887 4.392C24.2527 3.99067 23.7767 3.79 23.1607 3.79C22.5354 3.79 22.0547 3.99067 21.7187 4.392C21.3827 4.784 21.2147 5.32067 21.2147 6.002C21.2147 6.674 21.3827 7.21067 21.7187 7.612C22.0547 8.004 22.5354 8.2 23.1607 8.2ZM35.8599 1.088V7.486C35.8599 8.67133 35.5472 9.572 34.9219 10.188C34.3059 10.7947 33.4379 11.098 32.3179 11.098C31.1139 11.098 30.1572 10.7667 29.4479 10.104C28.7386 9.44133 28.3839 8.47533 28.3839 7.206H31.4499C31.4499 7.60733 31.5152 7.892 31.6459 8.06C31.7766 8.21867 31.9539 8.298 32.1779 8.298C32.3646 8.298 32.5092 8.23733 32.6119 8.116C32.7146 7.99467 32.7659 7.78467 32.7659 7.486V1.088H35.8599ZM39.8897 3.566V4.784H42.9697V7.122H39.8897V8.522H43.3897V11H36.7817V1.088H43.3897V3.566H39.8897ZM43.861 6.03C43.861 5.05 44.057 4.17733 44.449 3.412C44.8504 2.64667 45.4197 2.054 46.157 1.634C46.8944 1.20467 47.7624 0.99 48.761 0.99C49.6197 0.99 50.385 1.15333 51.057 1.48C51.7384 1.79733 52.289 2.25 52.709 2.838C53.1384 3.426 53.423 4.112 53.563 4.896H50.287C50.1377 4.56933 49.923 4.31733 49.643 4.14C49.3724 3.95333 49.0597 3.86 48.705 3.86C48.1824 3.86 47.767 4.056 47.459 4.448C47.1604 4.84 47.011 5.36733 47.011 6.03C47.011 6.69267 47.1604 7.22 47.459 7.612C47.767 8.004 48.1824 8.2 48.705 8.2C49.0597 8.2 49.3724 8.11133 49.643 7.934C49.923 7.74733 50.1377 7.49067 50.287 7.164H53.563C53.423 7.948 53.1384 8.634 52.709 9.222C52.289 9.81 51.7384 10.2673 51.057 10.594C50.385 10.9113 49.6197 11.07 48.761 11.07C47.7624 11.07 46.8944 10.86 46.157 10.44C45.4197 10.0107 44.8504 9.41333 44.449 8.648C44.057 7.88267 43.861 7.01 43.861 6.03ZM62.046 1.088V3.552H59.414V11H56.306V3.552H53.702V1.088H62.046Z" fill="#CFDAFE"/>
<path d="M69.105 5.918C69.7023 6.058 70.1643 6.34733 70.491 6.786C70.827 7.21533 70.995 7.71467 70.995 8.284C70.995 9.152 70.7057 9.824 70.127 10.3C69.5577 10.7667 68.7363 11 67.663 11H62.469V1.088H67.523C68.531 1.088 69.3243 1.30733 69.903 1.746C70.4817 2.18467 70.771 2.824 70.771 3.664C70.771 4.24267 70.617 4.73267 70.309 5.134C70.0103 5.526 69.609 5.78733 69.105 5.918ZM65.577 4.952H66.781C67.061 4.952 67.2663 4.896 67.397 4.784C67.537 4.672 67.607 4.49933 67.607 4.266C67.607 4.02333 67.537 3.846 67.397 3.734C67.2663 3.61267 67.061 3.552 66.781 3.552H65.577V4.952ZM66.991 8.508C67.271 8.508 67.4763 8.45667 67.607 8.354C67.747 8.242 67.817 8.06467 67.817 7.822C67.817 7.346 67.5417 7.108 66.991 7.108H65.577V8.508H66.991ZM76.4493 11.098C75.516 11.098 74.6573 10.8787 73.8733 10.44C73.0986 10.0013 72.4826 9.39467 72.0253 8.62C71.568 7.84533 71.3393 6.97267 71.3393 6.002C71.3393 5.03133 71.568 4.15867 72.0253 3.384C72.4826 2.60933 73.0986 2.00733 73.8733 1.578C74.6573 1.13933 75.516 0.92 76.4493 0.92C77.3826 0.92 78.2366 1.13933 79.0113 1.578C79.786 2.00733 80.3973 2.60933 80.8453 3.384C81.3026 4.15867 81.5313 5.03133 81.5313 6.002C81.5313 6.97267 81.3026 7.84533 80.8453 8.62C80.3973 9.39467 79.7813 10.0013 78.9973 10.44C78.2226 10.8787 77.3733 11.098 76.4493 11.098ZM76.4493 8.2C77.0653 8.2 77.5413 8.004 77.8773 7.612C78.2133 7.21067 78.3813 6.674 78.3813 6.002C78.3813 5.32067 78.2133 4.784 77.8773 4.392C77.5413 3.99067 77.0653 3.79 76.4493 3.79C75.824 3.79 75.3433 3.99067 75.0073 4.392C74.6713 4.784 74.5033 5.32067 74.5033 6.002C74.5033 6.674 74.6713 7.21067 75.0073 7.612C75.3433 8.004 75.824 8.2 76.4493 8.2ZM87.0625 11.098C86.1292 11.098 85.2705 10.8787 84.4865 10.44C83.7118 10.0013 83.0958 9.39467 82.6385 8.62C82.1812 7.84533 81.9525 6.97267 81.9525 6.002C81.9525 5.03133 82.1812 4.15867 82.6385 3.384C83.0958 2.60933 83.7118 2.00733 84.4865 1.578C85.2705 1.13933 86.1292 0.92 87.0625 0.92C87.9958 0.92 88.8498 1.13933 89.6245 1.578C90.3992 2.00733 91.0105 2.60933 91.4585 3.384C91.9158 4.15867 92.1445 5.03133 92.1445 6.002C92.1445 6.97267 91.9158 7.84533 91.4585 8.62C91.0105 9.39467 90.3945 10.0013 89.6105 10.44C88.8358 10.8787 87.9865 11.098 87.0625 11.098ZM87.0625 8.2C87.6785 8.2 88.1545 8.004 88.4905 7.612C88.8265 7.21067 88.9945 6.674 88.9945 6.002C88.9945 5.32067 88.8265 4.784 88.4905 4.392C88.1545 3.99067 87.6785 3.79 87.0625 3.79C86.4372 3.79 85.9565 3.99067 85.6205 4.392C85.2845 4.784 85.1165 5.32067 85.1165 6.002C85.1165 6.674 85.2845 7.21067 85.6205 7.612C85.9565 8.004 86.4372 8.2 87.0625 8.2ZM100.63 1.088V3.552H97.9977V11H94.8897V3.552H92.2857V1.088H100.63ZM100.773 6.03C100.773 5.05 100.969 4.17733 101.361 3.412C101.762 2.64667 102.331 2.054 103.069 1.634C103.806 1.20467 104.674 0.99 105.673 0.99C106.531 0.99 107.297 1.15333 107.969 1.48C108.65 1.79733 109.201 2.25 109.621 2.838C110.05 3.426 110.335 4.112 110.475 4.896H107.199C107.049 4.56933 106.835 4.31733 106.555 4.14C106.284 3.95333 105.971 3.86 105.617 3.86C105.094 3.86 104.679 4.056 104.371 4.448C104.072 4.84 103.923 5.36733 103.923 6.03C103.923 6.69267 104.072 7.22 104.371 7.612C104.679 8.004 105.094 8.2 105.617 8.2C105.971 8.2 106.284 8.11133 106.555 7.934C106.835 7.74733 107.049 7.49067 107.199 7.164H110.475C110.335 7.948 110.05 8.634 109.621 9.222C109.201 9.81 108.65 10.2673 107.969 10.594C107.297 10.9113 106.531 11.07 105.673 11.07C104.674 11.07 103.806 10.86 103.069 10.44C102.331 10.0107 101.762 9.41333 101.361 8.648C100.969 7.88267 100.773 7.01 100.773 6.03ZM117.53 9.502H114.226L113.736 11H110.474L114.1 1.088H117.684L121.296 11H118.02L117.53 9.502ZM116.774 7.164L115.878 4.406L114.982 7.164H116.774ZM133.496 1.088V11H130.402V6.058L128.876 11H126.216L124.69 6.058V11H121.582V1.088H125.39L127.574 7.038L129.702 1.088H133.496ZM142.584 4.49C142.584 5.11533 142.44 5.68467 142.15 6.198C141.861 6.702 141.432 7.10333 140.862 7.402C140.302 7.70067 139.621 7.85 138.818 7.85H137.586V11H134.478V1.088H138.818C140.032 1.088 140.96 1.396 141.604 2.012C142.258 2.628 142.584 3.454 142.584 4.49ZM138.468 5.4C139.112 5.4 139.434 5.09667 139.434 4.49C139.434 3.88333 139.112 3.58 138.468 3.58H137.586V5.4H138.468Z" fill="#FFB72A"/>
</svg>
